<svg width="55" height="55" viewBox="0 0 55 55" fill="none" xmlns="http://www.w3.org/2000/svg">
<path d="M34.2375 23.1688L24.1542 33.298L20.4875 29.6313C19.8229 28.9667 18.7229 28.9667 18.0583 29.6313C17.3937 30.2959 17.3937 31.3959 18.0583 32.0605L22.9167 36.9188C23.5812 37.5834 24.6812 37.5834 25.3458 36.9188L36.6667 25.598C37.3312 24.9334 37.3312 23.8334 36.6667 23.1688C36.0021 22.5042 34.9021 22.5042 34.2375 23.1688ZM48.5375 11.4813L41.4792 5.61462C40.5167 4.81254 39.0729 4.92712 38.2479 5.91254C37.4458 6.87504 37.5833 8.31879 38.5458 9.14379L45.5812 15.0105C46.5437 15.8125 47.9875 15.698 48.8125 14.7125C49.6375 13.75 49.5 12.3063 48.5375 11.4813ZM9.39583 15.0105L16.4312 9.14379C17.4167 8.31879 17.5542 6.87504 16.7292 5.91254C15.9271 4.92712 14.4833 4.81254 13.5208 5.61462L6.46249 11.4813C5.49999 12.3063 5.36249 13.75 6.18749 14.7125C6.98958 15.698 8.43333 15.8125 9.39583 15.0105ZM27.5 9.1667C16.1104 9.1667 6.87499 18.4021 6.87499 29.7917C6.87499 41.1813 16.1104 50.4167 27.5 50.4167C38.8896 50.4167 48.125 41.1813 48.125 29.7917C48.125 18.4021 38.8896 9.1667 27.5 9.1667ZM27.5 47.5C18.6542 47.5 10 38.6375 10 29.7917C10 20.9459 18.6542 12 27.5 12C36.3458 12 45 20.9459 45 29.7917C45 38.6375 36.3458 47.5 27.5 47.5Z" fill="url(#paint0_linear)"/>
<defs>
<linearGradient id="paint0_linear" x1="50.5" y1="5" x2="4" y2="47" gradientUnits="userSpaceOnUse">
<stop stop-color="#337D40" stop-opacity="0.86"/>
<stop offset="1" stop-color="#F0635E" stop-opacity="0.87"/>
</linearGradient>
</defs>
</svg>
