<svg width="57" height="71" viewBox="0 0 57 71" fill="none" xmlns="http://www.w3.org/2000/svg">
<path d="M54.6816 1.27161H21.4689C21.1166 1.27161 20.8308 1.5564 20.8308 1.90743V11.062C15.8347 11.1433 10.6972 15.1794 9.08485 20.3276C8.32259 22.7827 8.34959 25.3657 8.37576 27.866C8.41813 30.949 8.49498 37.1119 8.49498 37.1148V37.4203C8.49498 39.1029 9.86872 40.4719 11.5573 40.4719H13.8375C14.1897 40.4719 14.4755 40.1871 14.4755 39.836V38.2978C14.4709 38.0584 14.4719 37.8239 14.4709 37.5879C14.944 38.0277 15.4434 38.424 15.9727 38.7603V41.676H11.3957C6.58818 41.676 2.54578 45.4652 2.14263 49.95L1.6832 54.8333C1.66616 55.0113 1.72557 55.1885 1.84645 55.3205C1.96733 55.453 2.13889 55.5283 2.31835 55.5283H39.6407C39.6465 55.5279 39.6515 55.5279 39.6577 55.5283C40.01 55.5283 40.2958 55.2435 40.2958 54.8925C40.2958 54.8225 40.2846 54.7551 40.2634 54.6922L39.8417 49.9487C39.4043 45.3932 35.462 41.676 30.5716 41.676H26.003V38.7519C26.7289 38.2889 27.4074 37.7256 28.0281 37.0666V39.836C28.0281 40.1871 28.3139 40.4719 28.6661 40.4719H30.4952C32.1838 40.4719 33.5579 39.1029 33.5579 37.4219C33.5608 36.1966 33.5696 34.9714 33.5779 33.7465C33.6014 30.3848 33.6113 28.5877 33.5767 26.0856H54.6816C55.0339 26.0856 55.3197 25.8008 55.3197 25.4498V1.90743C55.3197 1.5564 55.0339 1.27161 54.6816 1.27161ZM30.5716 42.9477C34.783 42.9477 38.1949 46.1462 38.571 50.0655L38.9436 54.2567H3.01913L3.41335 50.0659C3.77221 46.0755 7.40984 42.9366 11.3957 42.9477H16.0395C16.426 45.5259 18.4978 47.3645 20.8474 47.3645H21.1112C23.4204 47.3645 25.5506 45.5572 25.9346 42.9477H30.5716ZM17.2488 42.0829V39.4515C19.3977 40.42 22.1814 40.5972 24.7269 39.4511V42.0829C24.7269 44.2461 23.1506 46.0928 21.1112 46.0928H20.8474C18.769 46.0928 17.2488 44.1909 17.2488 42.0829ZM28.0198 35.0972C24.4379 40.1218 18.1361 40.1768 14.4656 35.7516C14.4585 33.7651 14.4461 32.0804 14.4357 30.6448C14.3833 23.5785 14.3171 22.3276 15.5467 21.2267C16.1044 20.7358 16.845 20.4957 17.4145 20.4957C21.8145 20.4957 18.36 28.2189 28.0198 27.3278V35.0972ZM32.3018 33.7378C32.2934 34.9647 32.2847 36.1917 32.2818 37.4203C32.2818 38.4017 31.4805 39.2002 30.4952 39.2002H29.3042V26.6196C29.3042 26.4395 29.2274 26.2677 29.0932 26.1473C28.959 26.0264 28.7816 25.9722 28.5997 25.9871C26.2559 26.2329 22.9727 26.6356 21.6447 23.2364C21.4418 22.6873 21.0374 19.6576 17.9321 19.2489C16.4813 19.0682 14.9316 19.7665 14.11 20.9171C13.0898 22.3386 13.096 23.1677 13.155 31.0993C13.1674 32.7298 13.182 34.6675 13.1907 36.9794C13.1907 37.4244 13.1907 37.869 13.1994 38.3102V39.2002H11.5573C10.5724 39.2002 9.7711 38.4017 9.7711 37.4203V37.1069C9.7711 37.1069 9.69425 30.935 9.65188 27.8507C9.62696 25.4502 9.60079 22.9682 10.3032 20.7051C11.8726 15.6947 16.9909 12.0483 21.4369 12.3426C25.9517 12.5695 30.9322 16.5839 31.9768 22.0815C32.3091 23.8308 32.29 25.5547 32.3159 27.1751C32.3321 29.3628 32.3171 31.5501 32.3018 33.7378ZM54.0436 24.8139H33.5455C33.2841 18.5636 30.1076 14.1627 25.5095 12.0807V5.93429H37.6326C37.9849 5.93429 38.2707 5.6495 38.2707 5.29847C38.2707 4.94745 37.9849 4.66265 37.6326 4.66265H24.8714C24.5192 4.66265 24.2334 4.94745 24.2334 5.29847V11.5836C23.627 11.3882 22.7012 11.1881 22.1069 11.1214V2.54325H54.0436V24.8139Z" fill="url(#paint0_linear)"/>
<path d="M36.8189 14.7195H34.208C33.8558 14.7195 33.57 15.0043 33.57 15.3553C33.7816 19.8431 33.0805 21.4151 34.208 21.4151H36.8189C37.1711 21.4151 37.4569 21.1303 37.4569 20.7792V15.3553C37.4569 15.0043 37.1711 14.7195 36.8189 14.7195ZM36.1808 20.1434H34.8461V15.9911H36.1808V20.1434Z" fill="url(#paint1_linear)"/>
<path d="M42.0147 12.8228H39.4039C39.0517 12.8228 38.7659 13.1075 38.7659 13.4586V20.7792C38.7659 21.1302 39.0517 21.415 39.4039 21.415H42.0147C42.367 21.415 42.6528 21.1302 42.6528 20.7792V13.4586C42.6528 13.1075 42.367 12.8228 42.0147 12.8228ZM41.3767 20.1434H40.042V14.0944H41.3767V20.1434Z" fill="url(#paint2_linear)"/>
<path d="M47.2106 10.9257H44.5994C44.2471 10.9257 43.9613 11.2105 43.9613 11.5615V20.7792C43.9613 21.1303 44.2471 21.415 44.5994 21.415H47.2106C47.5629 21.415 47.8487 21.1303 47.8487 20.7792V11.5615C47.8487 11.2105 47.5629 10.9257 47.2106 10.9257ZM46.5725 20.1434H45.2374V12.1973H46.5725V20.1434Z" fill="url(#paint3_linear)"/>
<path d="M49.1572 9.66475V20.7792C49.1572 21.1302 49.443 21.415 49.7952 21.415H52.406C52.7583 21.415 53.0441 21.1302 53.0441 20.7792V9.66475C53.0441 9.31372 52.7583 9.02893 52.406 9.02893C50.7382 9.17515 49.1572 8.61291 49.1572 9.66475ZM50.4333 10.3006H51.768V20.1434H50.4333V10.3006Z" fill="url(#paint4_linear)"/>
<path d="M48.9906 5.50626L49.4289 5.71303L32.5356 11.6463C32.2033 11.7631 32.0288 12.1265 32.146 12.4577C32.2386 12.7189 32.4849 12.882 32.7479 12.882C32.8181 12.882 32.89 12.8704 32.9602 12.8459L49.8701 6.90685L49.6532 7.36364C49.5024 7.68113 49.6382 8.05989 49.9568 8.21016C50.2705 8.35907 50.6544 8.22837 50.8063 7.90756L51.6787 6.07088C51.8219 5.7687 51.7044 5.3797 51.375 5.22437L49.5364 4.35715C49.2174 4.20564 48.8373 4.34225 48.6869 4.65974C48.5361 4.97724 48.672 5.356 48.9906 5.50626Z" fill="url(#paint5_linear)"/>
<path d="M39.4039 5.93717H41.4863C41.8386 5.93717 42.1244 5.65238 42.1244 5.30135C42.1244 4.95032 41.8386 4.66553 41.4863 4.66553H39.4039C39.0517 4.66553 38.7659 4.95032 38.7659 5.30135C38.7659 5.65238 39.0517 5.93717 39.4039 5.93717Z" fill="url(#paint6_linear)"/>
<defs>
<linearGradient id="paint0_linear" x1="28.5" y1="1.27161" x2="28.5" y2="55.5283" gradientUnits="userSpaceOnUse">
<stop stop-color="#337D40" stop-opacity="0.85"/>
<stop offset="1" stop-color="#F0635E" stop-opacity="0.85"/>
</linearGradient>
<linearGradient id="paint1_linear" x1="35.501" y1="14.7195" x2="35.501" y2="21.4151" gradientUnits="userSpaceOnUse">
<stop stop-color="#337D40" stop-opacity="0.85"/>
<stop offset="1" stop-color="#F0635E" stop-opacity="0.85"/>
</linearGradient>
<linearGradient id="paint2_linear" x1="40.7093" y1="12.8228" x2="40.7093" y2="21.415" gradientUnits="userSpaceOnUse">
<stop stop-color="#337D40" stop-opacity="0.85"/>
<stop offset="1" stop-color="#F0635E" stop-opacity="0.85"/>
</linearGradient>
<linearGradient id="paint3_linear" x1="45.905" y1="10.9257" x2="45.905" y2="21.415" gradientUnits="userSpaceOnUse">
<stop stop-color="#337D40" stop-opacity="0.85"/>
<stop offset="1" stop-color="#F0635E" stop-opacity="0.85"/>
</linearGradient>
<linearGradient id="paint4_linear" x1="51.1006" y1="9.00665" x2="51.1006" y2="21.415" gradientUnits="userSpaceOnUse">
<stop stop-color="#337D40" stop-opacity="0.85"/>
<stop offset="1" stop-color="#F0635E" stop-opacity="0.85"/>
</linearGradient>
<linearGradient id="paint5_linear" x1="41.9241" y1="4.29529" x2="41.9241" y2="12.882" gradientUnits="userSpaceOnUse">
<stop stop-color="#337D40" stop-opacity="0.85"/>
<stop offset="1" stop-color="#F0635E" stop-opacity="0.85"/>
</linearGradient>
<linearGradient id="paint6_linear" x1="40.4451" y1="4.66553" x2="40.4451" y2="5.93717" gradientUnits="userSpaceOnUse">
<stop stop-color="#337D40" stop-opacity="0.85"/>
<stop offset="1" stop-color="#F0635E" stop-opacity="0.85"/>
</linearGradient>
</defs>
</svg>
