<svg width="58" height="58" viewBox="0 0 58 58" fill="none" xmlns="http://www.w3.org/2000/svg">
<path d="M40.0834 19.3334V20.3334H41.0834H47.125C47.556 20.3334 47.9874 20.545 48.2604 20.9028C48.261 20.9035 48.2616 20.9043 48.2622 20.9051L53.8139 28.3155C53.8143 28.316 53.8147 28.3166 53.8151 28.3171C54.3165 28.9928 54.5834 29.7987 54.5834 30.6192V38.6667C54.5834 39.4436 53.9436 40.0834 53.1667 40.0834H50.75H49.75V41.0834C49.75 44.5427 46.9594 47.3334 43.5 47.3334C40.0406 47.3334 37.25 44.5427 37.25 41.0834V40.0834H36.25H21.75H20.75V41.0834C20.75 44.5427 17.9594 47.3334 14.5 47.3334C11.0406 47.3334 8.25002 44.5427 8.25002 41.0834V40.0834H7.25002C5.14397 40.0834 3.41669 38.3561 3.41669 36.25V14.5C3.41669 12.394 5.14397 10.6667 7.25002 10.6667H36.25C38.3561 10.6667 40.0834 12.394 40.0834 14.5V19.3334ZM46.3 24.4L46 24H45.5H41.0834H40.0834V25V29V30H41.0834H48.5H50.5L49.3 28.4L46.3 24.4ZM11.0834 41.0834C11.0834 42.9648 12.6186 44.5 14.5 44.5C16.3815 44.5 17.9167 42.9648 17.9167 41.0834C17.9167 39.2019 16.3815 37.6667 14.5 37.6667C12.6186 37.6667 11.0834 39.2019 11.0834 41.0834ZM40.0834 41.0834C40.0834 42.9648 41.6186 44.5 43.5 44.5C45.3815 44.5 46.9167 42.9648 46.9167 41.0834C46.9167 39.2019 45.3815 37.6667 43.5 37.6667C41.6186 37.6667 40.0834 39.2019 40.0834 41.0834Z" fill="white" stroke="url(#paint0_linear)" stroke-width="2"/>
<defs>
<linearGradient id="paint0_linear" x1="53.5" y1="12.5" x2="5" y2="45.5" gradientUnits="userSpaceOnUse">
<stop stop-color="#337D40"/>
<stop offset="1" stop-color="#F0635E"/>
</linearGradient>
</defs>
</svg>
