<svg xmlns="http://www.w3.org/2000/svg" xmlns:xlink="http://www.w3.org/1999/xlink" version="1.1" x="0px" y="0px" viewBox="0 0 67 83.75" enable-background="new 0 0 67 67" xml:space="preserve"><g><path d="M64.2748795,1.4999368H25.2353287c-0.4140625,0-0.75,0.3359375-0.75,0.75v10.798584   c-5.8725586,0.0958252-11.9114389,4.8566895-13.8066416,10.9294434c-0.8959961,2.8959961-0.8642578,5.9428711-0.8334961,8.8920879   c0.0498047,3.6367188,0.1401367,10.90625,0.1401367,10.909668v0.3603516c0,1.9848633,1.6147461,3.5996094,3.5996094,3.5996094   h2.6801767c0.4140625,0,0.75-0.3359375,0.75-0.75v-1.8144531c-0.0054932-0.2824707-0.0043335-0.559082-0.0054932-0.8374023   c0.5561523,0.5187988,1.1431274,0.9862671,1.7652588,1.3829346v3.4393311h-5.3798838   c-5.651001,0-10.4025879,4.4696045-10.8764648,9.7597656l-0.5400391,5.7602577   c-0.0200195,0.2099609,0.0498047,0.4189453,0.1918945,0.574707c0.1420898,0.15625,0.34375,0.2451172,0.5546875,0.2451172H46.595192   c0.0068359-0.0004883,0.0126953-0.0004883,0.0200195,0c0.4140625,0,0.75-0.3359375,0.75-0.75   c0-0.0825195-0.0131836-0.1621094-0.0380859-0.2363281l-0.4956055-5.5952187   c-0.5142212-5.3735962-5.1481323-9.7583008-10.8964844-9.7583008h-5.3701172v-3.4492188   c0.8532715-0.5461426,1.6508179-1.2105713,2.3803711-1.987915v3.2667236c0,0.4140625,0.3359375,0.75,0.75,0.75h2.1499023   c1.9848633,0,3.6000977-1.6147461,3.6000977-3.5976563c0.003418-1.4453125,0.0136719-2.890625,0.0234375-4.3354492   c0.02771-3.965332,0.0392456-6.0852051-0.0014038-9.0366192h24.8075562c0.4140625,0,0.75-0.3359375,0.75-0.75V2.2499368   C65.0248795,1.8358743,64.688942,1.4999368,64.2748795,1.4999368z M35.9350357,50.6600914   c4.9502563,0,8.9607544,3.7729492,9.402832,8.3959961l0.4379883,4.9438477H3.5488043l0.4633789-4.9433594   c0.421814-4.7069702,4.6976318-8.4095459,9.3828125-8.3964844h5.458497   c0.4542847,3.0412598,2.8895874,5.2099609,5.6513672,5.2099609h0.3100586c2.7142944,0,5.2182007-2.1317749,5.6696167-5.2099609   H35.9350357z M20.2748795,49.6400719V46.536068c2.5258789,1.142395,5.7979736,1.3514404,8.7900391-0.0004883v3.1044922   c0,2.5515747-1.8528442,4.7299805-4.25,4.7299805h-0.3100586C22.0618057,54.3700523,20.2748795,52.1265221,20.2748795,49.6400719z    M32.935524,41.3998375c-4.2103271,5.9269409-11.6176758,5.9918213-15.9321289,0.7719727   c-0.0083008-2.3432617-0.0229492-4.3305664-0.0351563-6.0239258c-0.0615234-8.3352032-0.1394043-9.8107891,1.3059082-11.1093731   c0.6555786-0.5791016,1.526123-0.8623047,2.1955566-0.8623047c5.171875,0,1.1113892,9.1101055,12.4658203,8.0590801V41.3998375z    M37.9687271,39.7963219c-0.0097656,1.4472656-0.0200195,2.8945313-0.0234375,4.34375   c0,1.1577148-0.9418945,2.0996094-2.1000977,2.0996094h-1.3999023V31.3998394c0-0.2124023-0.090332-0.4150391-0.2480469-0.5571289   c-0.1577148-0.1425781-0.3662109-0.206543-0.5800781-0.1889648c-2.7550049,0.289917-6.6141357,0.7650146-8.1751099-3.2446289   c-0.2385254-0.6477051-0.7138672-4.2214355-4.3639526-4.7036133c-1.7053833-0.2131348-3.5269775,0.6105957-4.4926758,1.9677734   c-1.1992197,1.6767578-1.1918955,2.6547852-1.1225595,12.0107403c0.0146484,1.9233398,0.0317383,4.2089844,0.0419922,6.9360352   c0,0.5249023,0,1.0493164,0.0102539,1.5698242v1.0498047h-1.9301758c-1.1577148,0-2.0996094-0.9418945-2.0996094-2.0996094   V43.770443c0,0-0.090332-7.2802734-0.1401367-10.918457c-0.0292969-2.8315411-0.0600586-5.7592754,0.765625-8.428709   c1.8447266-5.9101563,7.8609629-10.2114258,13.086915-9.8642578c5.3068848,0.2677002,11.1611328,5.0029297,12.3890381,11.487793   c0.390564,2.0634766,0.368103,4.0969238,0.3985596,6.0082989C38.0043716,34.6356773,37.9867935,37.2157555,37.9687271,39.7963219z    M63.5248795,29.2699566H39.4306412c-0.3071899-7.3728027-4.0409546-12.5639648-9.4458008-15.0198975V6.9999366h14.25   c0.4140625,0,0.75-0.3359375,0.75-0.75s-0.3359375-0.75-0.75-0.75h-15c-0.4140625,0-0.75,0.3359375-0.75,0.75v7.4138188   c-0.7127686-0.2304688-1.8009644-0.4665527-2.4995117-0.545166V2.9999368h37.5395508V29.2699566z"/><path d="M43.2782974,17.36273h-3.0688477c-0.4140625,0-0.75,0.3359375-0.75,0.75   c0.2487793,5.2937012-0.5753174,7.1479492,0.75,7.1479492h3.0688477c0.4140625,0,0.75-0.3359375,0.75-0.75V18.11273   C44.0282974,17.6986675,43.6923599,17.36273,43.2782974,17.36273z M42.5282974,23.7606792h-1.5688477V18.86273h1.5688477   V23.7606792z"/><path d="M49.3857193,15.1254253h-3.0688477c-0.4140625,0-0.75,0.3359375-0.75,0.75v8.6352539c0,0.4140625,0.3359375,0.75,0.75,0.75   h3.0688477c0.4140625,0,0.75-0.3359375,0.75-0.75v-8.6352539C50.1357193,15.4613628,49.7997818,15.1254253,49.3857193,15.1254253z    M48.6357193,23.7606792h-1.5688477v-7.1352539h1.5688477V23.7606792z"/><path d="M55.4931412,12.8876324h-3.0693359c-0.4140625,0-0.75,0.3359375-0.75,0.75v10.8730469   c0,0.4140625,0.3359375,0.75,0.75,0.75h3.0693359c0.4140625,0,0.75-0.3359375,0.75-0.75V13.6376324   C56.2431412,13.2235699,55.9072037,12.8876324,55.4931412,12.8876324z M54.7431412,23.7606792h-1.5693359v-9.3730469h1.5693359   V23.7606792z"/><path d="M57.7812271,11.4003277v13.1103516c0,0.4140625,0.3359375,0.75,0.75,0.75h3.0688477c0.4140625,0,0.75-0.3359375,0.75-0.75   V11.4003277c0-0.4140625-0.3359375-0.75-0.75-0.75C59.6396255,10.822813,57.7812271,10.159605,57.7812271,11.4003277z    M59.2812271,12.1503277h1.5688477v11.6103516h-1.5688477V12.1503277z"/><path d="M57.5854263,6.4950538l0.5152588,0.2438965L38.2436295,13.73773   c-0.390625,0.1376953-0.5957031,0.5664063-0.4580078,0.9570313c0.1088867,0.3081055,0.3984375,0.5004883,0.7075195,0.5004883   c0.0825195,0,0.1669922-0.0136719,0.2495117-0.0424805l19.8766479-7.0056152l-0.2550659,0.5388184   c-0.1772461,0.3745117-0.0175781,0.8212891,0.3569336,0.9985352c0.3687134,0.1756592,0.8199463,0.0214844,0.9985352-0.3569336   l1.0253906-2.1665044c0.168335-0.3564453,0.0302124-0.8153076-0.3569336-0.9985352L58.2270279,5.139585   c-0.375-0.1787109-0.8217773-0.0175781-0.9985352,0.3569336C57.0512466,5.8710303,57.2109146,6.3178077,57.5854263,6.4950538z"/><path d="M46.3168716,7.0033545h2.4477539c0.4140625,0,0.75-0.3359375,0.75-0.75s-0.3359375-0.75-0.75-0.75h-2.4477539   c-0.4140625,0-0.75,0.3359375-0.75,0.75S45.9028091,7.0033545,46.3168716,7.0033545z"/></g><text x="0" y="82" fill="#000000" font-size="5px" font-weight="bold" font-family="'Helvetica Neue', Helvetica, Arial-Unicode, Arial, Sans-serif">Created by Vectors Point</text><text x="0" y="87" fill="#000000" font-size="5px" font-weight="bold" font-family="'Helvetica Neue', Helvetica, Arial-Unicode, Arial, Sans-serif">from the Noun Project</text></svg>